<?xml version="1.0" encoding="iso-8859-1"?>
<!-- Generator: Adobe Illustrator 19.1.0, SVG Export Plug-In . SVG Version: 6.00 Build 0)  -->
<svg version="1.1" id="Capa_1" xmlns="http://www.w3.org/2000/svg" xmlns:xlink="http://www.w3.org/1999/xlink" x="0px" y="0px"
	 viewBox="0 0 143.276 143.276" style="enable-background:new 0 0 143.276 143.276;" xml:space="preserve">
<g>
	<circle cx="61.84" cy="116.932" r="11.378"/>
	<circle cx="131.533" cy="109.265" r="11.379"/>
	<path d="M142.428,33.289c-0.672-0.771-1.637-1.219-2.678-1.169l-47.386,1.418l0.521,17.393l5.794-5.042
		c1.336-1.153,3.36-1.001,4.513,0.338c1.153,1.339,1.002,3.359-0.338,4.513l-10.98,9.535c-0.6,0.517-1.344,0.775-2.088,0.775
		c-0.744,0-1.488-0.258-2.088-0.775l-11.154-9.885c-1.339-1.153-1.491-3.174-0.338-4.512c1.152-1.339,3.176-1.491,4.512-0.338
		l5.754,5.132L85.967,33.73l-45.322,1.356l-4.211-14.083c-0.39-1.304-1.517-2.254-2.869-2.418L3.836,14.989
		c-1.859-0.212-3.581,1.11-3.81,2.988c-0.227,1.877,1.11,3.583,2.988,3.81l27.502,3.327l4.3,14.373
		c0.015,0.055,0.032,0.111,0.049,0.166l17.713,59.215c0.443,1.48,1.801,2.445,3.279,2.443c0.284,0,0.574-0.035,0.863-0.11l77.022-20
		c1.311-0.34,2.297-1.421,2.518-2.757l6.974-42.345C143.397,35.089,143.102,34.057,142.428,33.289z M118.048,72.545l-50.934,7.358
		c-0.182,0.027-0.364,0.039-0.545,0.039c-1.652,0-3.108-1.086-3.376-2.61c-0.299-1.69,0.974-3.278,2.841-3.547l50.934-7.359
		c1.849-0.286,3.623,0.881,3.92,2.57C121.188,70.688,119.916,72.276,118.048,72.545z"/>
	<path d="M88.857,30.199L88.857,30.199c-1.762,0.053-3.247-1.346-3.3-3.108l-0.248-8.303c-0.052-1.763,1.346-3.247,3.108-3.3l0,0
		c1.762-0.052,3.247,1.346,3.3,3.109l0.249,8.303C92.018,28.662,90.619,30.147,88.857,30.199z"/>
</g>
<g>
</g>
<g>
</g>
<g>
</g>
<g>
</g>
<g>
</g>
<g>
</g>
<g>
</g>
<g>
</g>
<g>
</g>
<g>
</g>
<g>
</g>
<g>
</g>
<g>
</g>
<g>
</g>
<g>
</g>
</svg>
